<?xml version="1.0" encoding="utf-8"?>
<!-- Generator: Adobe Illustrator 28.2.0, SVG Export Plug-In . SVG Version: 6.00 Build 0)  -->
<svg version="1.1" id="Layer_1" xmlns="http://www.w3.org/2000/svg" xmlns:xlink="http://www.w3.org/1999/xlink" x="0px" y="0px"
	 viewBox="0 0 4000 2000" style="enable-background:new 0 0 4000 2000;" xml:space="preserve">
<style type="text/css">
	.st0{fill:#FFFFFF;}
	.st1{fill:#01FE01;}
	.st2{fill:#00FF01;}
	.st3{fill:#00CD00;}
</style>
<rect class="st0" width="4000" height="2000"/>
<g>
	<g>
		<g>
			<path d="M1319.46,1162.13h32.39c7.52,0,13.87,1.22,19.05,3.68c5.18,2.46,8.94,5.98,11.28,10.56c2.34,4.58,3.1,9.98,2.28,16.2
				c-1.08,8.27-3.95,15.53-8.59,21.78c-4.65,6.25-10.59,11.07-17.83,14.46c-7.25,3.39-15.21,5.07-23.88,5.07h-38.44L1319.46,1162.13
				z M1337.44,1215.01c6.22,0,11.31-1.96,15.28-5.89c3.96-3.93,6.35-8.97,7.15-15.12c0.55-4.17-0.31-7.38-2.58-9.63
				c-2.27-2.25-5.83-3.39-10.68-3.39h-9.22l-11.22,34.03H1337.44z"/>
			<path d="M1486.55,1202.36c-4,4.75-9.23,8.28-15.69,10.6l9.25,20.91H1455l-7.78-18.04h-5.94l-5.95,18.04h-24.19l23.75-71.75h32.19
				c9.43,0,16.49,2.06,21.18,6.2c4.69,4.13,6.54,9.93,5.56,17.38C1492.97,1192.05,1490.56,1197.61,1486.55,1202.36z
				 M1460.94,1180.77h-8.1l-5.59,16.81h9.94c3.35,0,6.06-0.83,8.12-2.5c2.07-1.68,3.3-4.02,3.69-7.03
				C1469.64,1183.2,1466.95,1180.77,1460.94,1180.77z"/>
			<path d="M1572.16,1221.37h-27.36l-8.82,12.5h-25.52l55.12-71.75h23.78l7.61,71.75h-24.09L1572.16,1221.37z M1571.06,1203.95
				l-1.08-18.35l-12.96,18.35H1571.06z"/>
			<path d="M1655.36,1162.13h24.19l-23.75,71.75h-24.19L1655.36,1162.13z"/>
			<path d="M1792.72,1162.13l-23.75,71.75h-19.89l-16.23-33.41l-11.04,33.41h-23.58l23.75-71.75h19.88l16.23,33.41l11.04-33.41
				H1792.72z"/>
			<path d="M1883.92,1233.52c-5.29-1.33-9.58-3.09-12.84-5.28l11.66-17.83c7.14,4.44,14.91,6.66,23.32,6.66
				c3.07,0,5.48-0.37,7.22-1.13c1.74-0.75,2.69-1.77,2.86-3.07c0.16-1.23-0.55-2.22-2.12-2.98c-1.58-0.75-4.12-1.57-7.62-2.45
				c-4.62-1.23-8.43-2.48-11.4-3.74c-2.98-1.26-5.47-3.21-7.48-5.85c-2.01-2.63-2.74-6.1-2.18-10.41
				c0.71-5.39,2.78-10.12,6.22-14.19c3.44-4.07,8.03-7.21,13.79-9.43s12.36-3.34,19.81-3.34c5.33,0,10.24,0.53,14.71,1.59
				c4.47,1.06,8.25,2.59,11.34,4.57l-11.02,17.62c-2.57-1.77-5.49-3.1-8.76-3.99c-3.26-0.89-6.68-1.33-10.23-1.33
				c-3.35,0-6.01,0.47-7.98,1.43c-1.97,0.96-3.04,2.09-3.21,3.39c-0.17,1.3,0.53,2.32,2.11,3.07c1.57,0.76,4.22,1.58,7.93,2.46
				c4.5,1.1,8.26,2.25,11.28,3.49c3.02,1.23,5.51,3.14,7.5,5.74c1.98,2.6,2.7,6.01,2.14,10.26c-0.7,5.33-2.78,10.01-6.25,14.04
				c-3.46,4.03-8.08,7.16-13.83,9.38c-5.76,2.22-12.33,3.33-19.71,3.33C1894.97,1235.51,1889.21,1234.85,1883.92,1233.52z"/>
			<path d="M2012.45,1180.37l-2.74,8.41h30.34l-5.77,17.43h-30.44l-3.08,9.42h35.98l-6.08,18.25H1971l23.75-71.75h58.32l-6.08,18.24
				H2012.45z"/>
			<path d="M2146.15,1202.36c-4,4.75-9.23,8.28-15.69,10.6l9.25,20.91h-25.12l-7.78-18.04h-5.94l-5.95,18.04h-24.19l23.75-71.75
				h32.19c9.43,0,16.49,2.06,21.18,6.2c4.69,4.13,6.54,9.93,5.56,17.38C2152.58,1192.05,2150.16,1197.61,2146.15,1202.36z
				 M2120.54,1180.77h-8.1l-5.59,16.81h9.94c3.35,0,6.06-0.83,8.12-2.5c2.07-1.68,3.3-4.02,3.69-7.03
				C2129.24,1183.2,2126.55,1180.77,2120.54,1180.77z"/>
			<path d="M2278.27,1162.13l-54.09,71.75h-23.78l-6.59-71.75h24.8l3.44,41.82l31.41-41.82H2278.27z"/>
			<path d="M2311.38,1162.13h24.19l-23.75,71.75h-24.19L2311.38,1162.13z"/>
			<path d="M2376.05,1231.46c-5.22-2.69-9.03-6.47-11.43-11.32c-2.4-4.86-3.19-10.42-2.37-16.71c1.09-8.33,3.99-15.75,8.7-22.24
				c4.71-6.5,10.74-11.57,18.09-15.22c7.35-3.66,15.39-5.49,24.14-5.49c6.9,0,12.85,1.25,17.85,3.74c5,2.5,8.51,6.03,10.5,10.61
				l-19.21,13.63c-2.48-5.61-6.89-8.41-13.25-8.41c-3.76,0-7.23,0.92-10.41,2.77c-3.18,1.85-5.81,4.42-7.88,7.74
				c-2.07,3.32-3.39,7.09-3.94,11.33c-0.56,4.24,0.35,7.64,2.71,10.2c2.36,2.56,5.76,3.84,10.21,3.84c6.08,0,11.77-2.76,17.08-8.3
				l12.46,13.63c-4.84,5.12-10.05,8.78-15.64,10.97c-5.58,2.19-11.86,3.28-18.83,3.28
				C2387.52,1235.51,2381.26,1234.16,2376.05,1231.46z"/>
			<path d="M2502.72,1180.37l-2.74,8.41h30.34l-5.77,17.43h-30.44l-3.08,9.42h35.98l-6.08,18.25h-59.66l23.75-71.75h58.32
				l-6.08,18.24H2502.72z"/>
			<path d="M2572.02,1233.52c-5.29-1.33-9.58-3.09-12.84-5.28l11.66-17.83c7.14,4.44,14.91,6.66,23.32,6.66
				c3.07,0,5.48-0.37,7.22-1.13c1.74-0.75,2.69-1.77,2.86-3.07c0.16-1.23-0.55-2.22-2.12-2.98c-1.58-0.75-4.11-1.57-7.62-2.45
				c-4.62-1.23-8.43-2.48-11.4-3.74c-2.98-1.26-5.47-3.21-7.49-5.85c-2.01-2.63-2.74-6.1-2.18-10.41
				c0.71-5.39,2.78-10.12,6.22-14.19c3.44-4.07,8.03-7.21,13.79-9.43s12.36-3.34,19.81-3.34c5.33,0,10.24,0.53,14.71,1.59
				c4.47,1.06,8.25,2.59,11.34,4.57l-11.02,17.62c-2.57-1.77-5.49-3.1-8.76-3.99c-3.26-0.89-6.68-1.33-10.23-1.33
				c-3.35,0-6.01,0.47-7.98,1.43c-1.97,0.96-3.04,2.09-3.21,3.39s0.53,2.32,2.11,3.07c1.57,0.76,4.22,1.58,7.93,2.46
				c4.5,1.1,8.26,2.25,11.28,3.49c3.02,1.23,5.51,3.14,7.5,5.74c1.98,2.6,2.7,6.01,2.14,10.26c-0.7,5.33-2.78,10.01-6.25,14.04
				c-3.46,4.03-8.08,7.16-13.83,9.38c-5.76,2.22-12.33,3.33-19.71,3.33C2583.07,1235.51,2577.31,1234.85,2572.02,1233.52z"/>
		</g>
	</g>
	<g>
		<path d="M1078.31,954.51h-98.06l-15.69,42.72l-49.69,13.51h156.91l-24.85,67.12H818.98l101.11-277.64l23.11,22.67l-23.54-58.4
			h241.47l-24.41,67.12H1024.7l-20.05,55.79h98.51L1078.31,954.51z"/>
		<path d="M1371.64,1032.97l-61.02,44.9h-196.57l-28.77-44.9l84.99-232.74l23.1,22.67l-23.53-58.4h254.97l28.33,44.89l-17.87,49.25
			l-124.65,22.22l18.3-49.25h-54.04l-60.15,165.62l-49.69,13.51h98.51l17.87-49.25h116.37L1371.64,1032.97z"/>
		<path d="M1392.56,1032.97l84.99-232.74l23.1,22.67l-23.53-58.4h254.97l28.33,44.89l-81.5,223.59l-61.02,44.9h-196.57
			L1392.56,1032.97z M1570.83,1010.74l65.37-179.13h-54.04l-60.15,165.62l-49.69,13.51H1570.83z"/>
		<path d="M1712.48,981.54l24.41-67.12h152.55l-24.85,67.12H1712.48z"/>
		<path d="M1953.07,800.23l23.11,22.67l-23.54-58.4h254.97l28.34,44.89l-36.61,100.68l-91.53,24.41l22.22,8.28l38.79,135.12h-118.99
			l-31.38-123.35h-5.23l-31.82,87.61l-23.1-22.67l23.53,58.4h-129.88L1953.07,800.23z M2091.23,887.4l20.49-55.79h-54.05
			l-20.05,55.79H2091.23z"/>
		<path d="M2188.43,1032.97l84.99-232.74l23.1,22.67l-23.53-58.4h254.97l28.33,44.89l-81.5,223.59l-61.02,44.9H2217.2
			L2188.43,1032.97z M2366.7,1010.74l65.37-179.13h-54.04l-60.15,165.62l-49.69,13.51H2366.7z"/>
		<path d="M2582.88,800.23l23.11,22.67l-23.54-58.4h254.97l28.34,44.89l-81.51,223.59l-61.02,44.9h-241.46L2582.88,800.23z
			 M2676.16,1010.74l65.38-179.13h-54.05l-60.14,165.62l-49.69,13.51H2676.16z"/>
	</g>
	<g>
		<g>
			<path d="M2888,968.78l9.08,8.91l-9.25-22.95h50.86l-33.22,91.45l-19.53,5.31h61.65l-9.76,26.37h-89.57L2888,968.78z"/>
			<path d="M2984.76,986.41l19.52-5.31h-42.13l2.57-26.37h101.9l-9.59,26.37h-24.66l-29.97,82.72l-9.08-8.91l9.25,22.95h-51.04
				L2984.76,986.41z"/>
			<path d="M3069.88,968.78l9.08,8.91l-9.25-22.95h100.18l11.13,17.64l-32.03,87.86l-23.98,17.64h-94.87L3069.88,968.78z
				 M3106.52,1051.5l25.69-70.39h-21.24l-23.63,65.08l-19.53,5.31H3106.52z"/>
		</g>
	</g>
</g>
</svg>
