<svg width="234" height="99" viewBox="0 0 234 99" xmlns="http://www.w3.org/2000/svg" xmlns:xlink="http://www.w3.org/1999/xlink">
    <defs>
        <path id="e7hv0wb7oa" d="M0 0h204.93v88.44H0z"/>
        <path id="8gbozshixc" d="M0 99h233.64V0H0z"/>
    </defs>
    <g fill="none" fill-rule="evenodd">
        <g transform="translate(28.71 7.59)">
            <mask id="lydabw4p3b" fill="#fff">
                <use xlink:href="#e7hv0wb7oa"/>
            </mask>
            <path d="M166.493 0c-.255 0-.428.014-.49.02L4.447 12.988c-2.085.167-3.146 1.13-3.668 1.91-1.32 1.967-.591 4.581-.462 5l13.634 51.117c.371 1.898 2.11 5.476 6.12 5.73l14.276.963-.634 2.588c-.087.323-.539 2.245.644 3.812.874 1.159 2.348 1.745 4.38 1.745.142 0 .29-.002.438-.008l71.443-3 81.928 5.519c.58.05 1.138.076 1.662.076 3.034 0 5.157-.858 6.308-2.547 1.664-2.448.517-5.635.393-5.963l-.356-.994c1.581-.35 2.76-1.121 3.51-2.298 1.77-2.774.306-6.727.16-7.101l-20.637-58.07c-1.715-4.822-5.77-5.197-6.972-5.197-.212 0-.36.012-.423.017l-1.533.106-.146-.41C172.54.432 167.876 0 166.493 0" fill="#FEFEFE" mask="url(#lydabw4p3b)"/>
        </g>
        <path d="m64.766 84.48-.958 3.873s-1.233 4.25 4.278 4.04l71.174-2.954-74.494-4.959zM232.01 77.751l-20.723-58.138c-1.749-4.901-6.236-4.42-6.236-4.42l-2.431.167 25.22 70.44c7.22-.412 4.17-8.049 4.17-8.049" fill="#F3D015"/>
        <path d="m48.706 83.02 172.683 11.617c10.28.904 7.198-6.882 7.198-6.882l-26.43-73.959c-2.052-5.765-7.326-5.2-7.326-5.2L33.085 21.562c-4.739.38-3.117 5.44-3.117 5.44l13.666 51.18s.854 4.568 5.072 4.836" fill="#C12518"/>
        <path d="M62.472 10.998c-.112-.064-.29-.095-.54-.095h-.38v.919h.403c.19 0 .33-.02.424-.057.173-.07.261-.202.261-.396 0-.185-.056-.309-.168-.371zm-.481-.401c.315 0 .546.03.693.092.262.11.393.323.393.643 0 .227-.082.393-.247.5a.977.977 0 0 1-.37.124c.2.031.345.114.438.248a.692.692 0 0 1 .137.392v.185c0 .06.003.123.006.189a.38.38 0 0 0 .025.133l.015.03h-.423c-.002-.008-.003-.016-.007-.025a.175.175 0 0 0-.005-.028l-.01-.08v-.202c0-.292-.079-.486-.238-.58-.094-.055-.258-.082-.494-.082h-.352v.997h-.447v-2.536h.886zm-1.359-.128c-.386.39-.578.858-.578 1.407 0 .553.191 1.025.576 1.414.386.39.854.585 1.406.585.552 0 1.021-.194 1.407-.585.386-.389.58-.86.58-1.414 0-.55-.194-1.018-.58-1.407a1.913 1.913 0 0 0-1.407-.585c-.548 0-1.016.195-1.404.585zm3.04 3.043a2.23 2.23 0 0 1-1.636.678c-.64 0-1.186-.226-1.634-.678a2.24 2.24 0 0 1-.672-1.64c0-.635.226-1.178.677-1.63.45-.447.992-.672 1.629-.672.64 0 1.185.225 1.637.673.451.45.677.993.677 1.63 0 .64-.226 1.185-.677 1.639zM95.087 30.69c1.231 1.78 1.772 3.929 1.772 6.237 0 6.44-4.295 11.708-14.662 11.123l-.89-.05v11.953H74.25v2.417h9.528V50.418l.89.049c10.367.585 14.662-4.684 14.662-11.123 0-3.494-1.24-6.628-4.243-8.654M83.987 42.844v-8.47c.347-.097.99-.29 1.733-.29.661 0 1.234.062 1.73.188-.542-1.766-1.789-2.592-4.207-2.592-.742 0-1.386.194-1.733.29v10.868l.891.049a9.88 9.88 0 0 0 1.586-.043" fill="#1D1D1B"/>
        <path d="M83.197 31.757c-.741 0-1.382.195-1.729.292v10.908l.89.049c3.998.194 5.38-1.51 5.38-5.65 0-3.846-1.036-5.6-4.541-5.6m-.84 16.752-.889-.049V60.39H71.94V28.397c2.715-1.217 6.615-1.997 11.207-1.997 10.17 0 13.873 4.967 13.873 11.006 0 6.427-4.295 11.687-14.663 11.102" fill="#F3D015"/>
        <path d="m119.339 56.323.974 2.66c-2.299 1.111-5.38 1.982-10.271 1.982-3.296 0-5.994-.845-8.072-2.326 2.191 2.934 5.724 4.721 10.52 4.721 4.89 0 7.972-.87 10.27-1.982l-2.054-5.608c-.389.192-.847.38-1.367.553M107.45 45.168c.379-2.73 1.731-4.19 3.804-4.19.216 0 .42.022.616.057-.526-1.621-1.529-2.425-3.014-2.425-2.684 0-4.168 2.438-3.88 6.93l2.474-.372zM118.615 37.95c1.777 2.501 2.554 6.001 2.32 10.235L105.6 50.311c.407 1.945 1.262 3.214 2.872 3.809a7.7 7.7 0 0 1-.428-1.415l15.335-2.126c.322-5.835-1.272-10.28-4.764-12.629" fill="#1D1D1B"/>
        <path d="M108.41 38.67c-2.722 0-4.228 2.5-3.936 7.106l7.433-1.127c0-4.018-1.166-5.978-3.498-5.978zm-3.256 11.515c.583 2.842 2.09 4.263 5.441 4.263 3.11 0 5.54-.686 6.997-1.421l2.04 5.683c-2.283 1.128-5.344 2.01-10.203 2.01-8.551 0-13.069-5.83-13.069-13.768 0-7.938 4.227-13.622 12.437-13.622 8.211 0 12.098 5.733 11.613 14.699l-15.256 2.156z" fill="#F3D015"/>
        <path d="M133.728 54.683V41.25c.429-.144.906-.242 1.573-.242.488 0 .923.066 1.319.183-.67-1.729-1.844-2.581-3.706-2.581-.668 0-1.145.097-1.574.243v15.685c.334.145.811.242 1.431.242.342 0 .657-.037.957-.097M144.315 38.28c1.552 2.166 2.421 5.07 2.421 8.75 0 8.326-4.798 13.616-11.532 13.616-1.647 0-3.004-.196-3.682-.392v10.579h-6.782v2.427h9.207V62.681c.677.196 2.034.391 3.68.391 6.736 0 11.533-5.289 11.533-13.615 0-5.296-1.795-8.987-4.845-11.177" fill="#1D1D1B"/>
        <path d="M133.234 38.748c-.677 0-1.162.098-1.597.244v15.814c.338.147.823.244 1.452.244 3.295 0 4.652-2.732 4.652-8.102 0-5.515-1.163-8.2-4.507-8.2m2.084 21.72c-1.647 0-3.004-.195-3.681-.39V70.62h-9.207V35.332c2.47-1.171 5.813-2.002 10.853-2.002 8.091 0 13.567 4.345 13.567 13.57 0 8.297-4.797 13.568-11.532 13.568" fill="#F3D015"/>
        <path d="M169.765 37.95c1.778 2.501 2.555 6.001 2.32 10.235l-15.335 2.126c.406 1.945 1.262 3.214 2.872 3.809a7.7 7.7 0 0 1-.429-1.415l15.336-2.126c.323-5.835-1.271-10.28-4.764-12.629M158.93 45.168c.378-2.73 1.731-4.19 3.803-4.19.218 0 .42.022.617.057-.526-1.621-1.529-2.425-3.014-2.425-2.683 0-4.168 2.438-3.88 6.93l2.473-.372zM170.489 56.323l.974 2.66c-2.3 1.111-5.38 1.982-10.27 1.982-3.296 0-5.995-.845-8.073-2.326 2.191 2.934 5.725 4.721 10.52 4.721 4.89 0 7.971-.87 10.27-1.982l-2.054-5.608c-.389.192-.847.38-1.367.553" fill="#1D1D1B"/>
        <path d="M160.22 38.67c-2.722 0-4.228 2.5-3.936 7.106l7.433-1.127c0-4.018-1.167-5.978-3.498-5.978zm-3.256 11.515c.583 2.842 2.09 4.263 5.441 4.263 3.11 0 5.539-.686 6.997-1.421l2.04 5.683c-2.283 1.128-5.344 2.01-10.202 2.01-8.551 0-13.07-5.83-13.07-13.768 0-7.938 4.227-13.622 12.437-13.622 8.212 0 12.098 5.733 11.612 14.699l-15.255 2.156z" fill="#F3D015"/>
        <path d="M185.962 23.76c.02.093.04.186.056.279l-8.195 15.117h-1.536l-.727 2.424h4.676l8.194-15.117c-.206-1.174-.77-2.379-2.468-2.703" fill="#1D1D1B"/>
        <path d="M177.596 38.94h-4.676l4.53-15.044c.917-1.412 2.46-2.776 4.917-2.776 2.458 0 3.183 1.412 3.423 2.776l-8.194 15.044z" fill="#F3D015"/>
        <path d="M200.31 37.647a14.13 14.13 0 0 0-2.928-1.347l-1.733 4.186c-.785-.603-2.305-1.358-3.875-1.358-1.57 0-2.354.956-2.354 2.112 0 1.305.886 2.178 2.5 2.98a2.629 2.629 0 0 1-.046-.488c0-1.157.785-2.113 2.354-2.113 1.57 0 3.09.756 3.875 1.358l2.207-5.33zM188.35 51.64c.143.057.28.114.41.17-.153-.985-.92-1.692-2.877-2.471a14.471 14.471 0 0 1-2.403-1.159c.833 1.296 2.323 2.486 4.87 3.46M197.584 48.18c.711 1.163.941 2.414.941 3.784 0 4.956-3.909 8.635-10.553 8.635-1.953 0-3.792-.273-5.34-.716l-.472 1.185c1.759 1.128 4.837 1.962 8.256 1.962 6.645 0 10.554-3.68 10.554-8.635 0-2.377-.686-4.394-3.386-6.215" fill="#1D1D1B"/>
        <path d="M187.776 60.72c-3.42 0-6.497-.834-8.256-1.963l2.345-5.89c1.026.834 2.785 1.522 4.494 1.522 1.417 0 2.444-.835 2.444-2.062 0-1.276-.684-2.112-2.883-3.044-4.691-1.914-5.765-4.614-5.765-7.362 0-4.81 3.762-8.591 9.283-8.591 3.566 0 5.814.59 8.257 2.013l-2.198 5.203c-.782-.589-2.297-1.325-3.86-1.325-1.564 0-2.345.932-2.345 2.062 0 1.374 1.025 2.257 2.882 3.092 5.032 2.208 6.156 4.663 6.156 7.706 0 4.958-3.909 8.639-10.554 8.639" fill="#F3D015"/>
        <path d="M144.898 72.539v-2.96c.112-.038.323-.112.565-.112.145 0 .277.01.397.032-.148-.81-.553-1.189-1.415-1.189-.241 0-.451.075-.565.112v4.154l.291.019c.281.016.52-.004.727-.056M149.036 67.98c.404.652.586 1.42.586 2.241 0 2.463-1.638 4.477-5.594 4.253l-.34-.018v4.57h-2.448v1.164h3.636v-4.571l.34.018c3.955.224 5.594-1.79 5.594-4.253 0-1.393-.518-2.634-1.774-3.404M154.254 65.983c0 .842-.82 1.54-1.847 1.54-.212 0-.416-.032-.607-.089.183.685.913 1.206 1.784 1.206 1.025 0 1.846-.698 1.846-1.54 0-.659-.505-1.218-1.215-1.43.025.1.039.206.039.313M154.225 79.045H151.8v1.145h3.63v-9.9h-1.205zM161.556 69.96l-.335 1.378c-.656-.327-1.294-.346-1.762-.172v8.155h-2.379v1.199h3.56v-8.156c.469-.173 1.106-.154 1.762.174l.618-2.54a25.62 25.62 0 0 0-1.464-.038M166.435 79.045h-2.425v1.145h3.63v-9.9h-1.205zM166.464 65.983c0 .842-.82 1.54-1.847 1.54-.212 0-.416-.032-.607-.089.183.685.913 1.206 1.784 1.206 1.025 0 1.846-.698 1.846-1.54 0-.659-.505-1.218-1.215-1.43.025.1.039.206.039.313M177.238 72.539v-2.96c.112-.038.322-.112.564-.112.145 0 .278.01.398.032-.148-.81-.553-1.189-1.415-1.189-.242 0-.451.075-.565.112v4.154l.291.019c.281.016.52-.004.727-.056M181.045 67.98c.405.652.587 1.42.587 2.241 0 2.463-1.639 4.477-5.594 4.253l-.34-.018v4.57h-2.448v1.164h3.636v-4.571l.34.018c3.954.224 5.594-1.79 5.594-4.253 0-1.394-.518-2.634-1.775-3.404M186.594 65.983c0 .842-.821 1.54-1.847 1.54-.213 0-.417-.032-.607-.089.183.685.913 1.206 1.782 1.206 1.026 0 1.848-.698 1.848-1.54 0-.658-.504-1.218-1.215-1.43.025.1.039.206.039.313M186.565 79.045h-2.425v1.145h3.63v-9.9h-1.205zM193.896 69.96l-.336 1.378c-.655-.327-1.292-.346-1.76-.172v8.155h-2.38v1.199h3.56v-8.156c.47-.173 1.106-.154 1.761.174l.619-2.54c-.52-.027-1.007-.04-1.464-.038M198.804 65.983c0 .842-.82 1.54-1.847 1.54-.212 0-.416-.032-.607-.089.183.685.913 1.206 1.784 1.206 1.025 0 1.846-.698 1.846-1.54 0-.659-.505-1.218-1.215-1.43.025.1.039.206.039.313M198.445 79.045h-2.425v1.145h3.63v-9.9h-1.205z" fill="#1D1D1B"/>
        <path d="M144.545 68.028c-.282 0-.528.074-.66.11v4.13l.34.02c1.526.073 2.053-.572 2.053-2.14 0-1.456-.395-2.12-1.733-2.12m-.32 6.342-.34-.018v4.518h-3.635V66.756c1.036-.461 2.525-.756 4.276-.756 3.881 0 5.294 1.88 5.294 4.168 0 2.432-1.639 4.424-5.595 4.202" fill="#F3D015"/>
        <mask id="29gymjnmhd" fill="#fff">
            <use xlink:href="#8gbozshixc"/>
        </mask>
        <path d="M150.535 78.87h3.501V68.836h-3.501V78.87zm1.751-11.337c-.995 0-1.806-.725-1.806-1.601 0-.874.81-1.582 1.806-1.582 1.013 0 1.824.708 1.824 1.582 0 .876-.81 1.601-1.824 1.601zM161.081 71.218c-.656-.326-1.293-.346-1.761-.173V79.2h-3.56v-9.77c1.18-.597 3.054-.905 5.94-.75l-.619 2.538zM162.745 78.87h3.501V68.836h-3.501V78.87zm1.751-11.337c-.995 0-1.806-.725-1.806-1.601 0-.874.81-1.582 1.806-1.582 1.013 0 1.824.708 1.824 1.582 0 .876-.81 1.601-1.824 1.601zM176.885 68.028c-.282 0-.527.074-.659.11v4.13l.34.02c1.525.073 2.053-.572 2.053-2.14 0-1.456-.396-2.12-1.734-2.12m-.32 6.342-.339-.018v4.518h-3.636V66.756c1.036-.461 2.525-.756 4.277-.756 3.88 0 5.293 1.88 5.293 4.168 0 2.432-1.64 4.424-5.595 4.202M183.206 78.87h3.5V68.836h-3.5V78.87zm1.75-11.337c-.995 0-1.806-.725-1.806-1.601 0-.874.811-1.582 1.806-1.582 1.013 0 1.824.708 1.824 1.582 0 .876-.811 1.601-1.824 1.601zM193.751 71.218c-.655-.326-1.293-.346-1.761-.173V79.2h-3.56v-9.77c1.18-.597 3.054-.905 5.94-.75l-.619 2.538zM195.086 78.87h3.5V68.836h-3.5V78.87zm1.75-11.337c-.995 0-1.806-.725-1.806-1.601 0-.874.81-1.582 1.806-1.582 1.013 0 1.824.708 1.824 1.582 0 .876-.81 1.601-1.824 1.601z" fill="#F3D015" mask="url(#29gymjnmhd)"/>
        <path d="M60.33 28.804a1.535 1.535 0 0 0-1.171-.513c-.105 0-.196.01-.268.02-.963.092-1.838.86-3.144 2.006-.783.687-1.668 1.465-2.676 2.178.557-1.594.816-3.153.769-4.664v-.023l-.002-.023c-.114-1.59-1.042-1.762-1.434-1.762h-.002c-.744 0-1.24.596-1.53 1.113-.626.972-1.857 2.652-3.686 4.142a13.329 13.329 0 0 0-1.574-2.303 19.71 19.71 0 0 0 8.875-12.634c.43-2.09.538-4.768-.449-6.007-.448-.563-1.222-.872-2.18-.872-1.817 0-5.84 1.086-12.372 8.358l-.135.15a7.306 7.306 0 0 0-6.456-2.572 7.315 7.315 0 0 0-1.867.47c.18-1.076.34-2.353.399-3.705.17-3.903-.556-6.938-2.157-9.022C27.667 1.057 25.263 0 22.122 0c-.245 0-.498.006-.752.02-3.896.197-6.463 1.64-7.63 4.284-1.246 2.824-.532 6.566.762 9.786-2.015-1.314-4.349-2.377-6.625-2.377-1.954 0-4.692.804-6.636 4.635l-.023.048-.02.049c-.064.161-1.545 4.004.612 7.759 1.19 2.07 3.211 3.665 6.04 4.77-1.21.484-2.36 1.217-3.185 2.323-1.269 1.702-1.515 3.924-.73 6.604l.014.045.017.043c.022.06.571 1.47 1.914 2.858 1.243 1.284 3.438 2.815 6.827 2.815 1.963 0 4.118-.516 6.424-1.536a13.601 13.601 0 0 0 5.545 8.224c-1.018.702-2.095 1.707-2.902 3.118a12.158 12.158 0 0 1-2.903-.874l-.012-.005a1.457 1.457 0 0 0-.585-.127c-.377 0-.733.162-.978.444-.351.404-.34.876-.316 1.08l.101.83c-.598-.438-1.285-1.058-1.949-1.774a1.353 1.353 0 0 0-.992-.446c-.577 0-1.088.383-1.303.975l-.023.07c-.473 1.614-.233 3.443.065 4.726-.908-.405-2.23-1.358-3.549-2.587-.303-.303-.647-.458-1.022-.458-.7 0-1.255.55-1.306 1.289-.293 3.12 1.155 5.817 2.925 7.889a23.342 23.342 0 0 1-1.503-.818 1.556 1.556 0 0 0-.807-.24c-.405 0-.78.182-1.026.498-.367.47-.302 1.023-.247 1.27.14.688.465 1.959 1.146 3.304-.625-.297-.85-.496-.91-.558-.372-.378-.758-.457-1.017-.457-.723 0-1.288.591-1.312 1.376v.044c.003.517.075 1.49.501 2.563-.713-.45-1.331-1.2-1.585-2.445l-.012-.054c-.267-1.062-1.056-1.145-1.292-1.145-.234 0-1.014.083-1.314 1.135-.671 2.205-2.174 9.82 6.283 16.183 3.218 2.424 6.87 3.653 10.858 3.653 3.932 0 7.465-1.212 9.868-2.25.369.195.744.377 1.128.545a1.796 1.796 0 0 1-.109.258c-1.39 1.286-3.688 2.08-5.038 2.08-.056 0-.11-.002-.163-.005a7.956 7.956 0 0 0-.478-.014c-2.25 0-3.784.869-4.005 2.268-.128.804.149 1.33.403 1.63.277.324.81.711 1.785.711.535 0 1.153-.116 1.834-.345.277-.093.554-.19.832-.287 1.451-.509 2.82-.988 4.389-.988.38 0 .765.03 1.143.087 4.498.692 8.004 2.578 10.717 5.764.354.475.924.737 1.612.737.99 0 2.326-.6 2.965-1.748a2.85 2.85 0 0 0 .25-.601l.143-.047c1.093-.362 1.814-.937 2.143-1.709.043-.103.078-.209.107-.316.578-.3 1.08-.769 1.362-1.33.089-.176.151-.354.194-.533.047-.119.084-.247.111-.383.777-.01 1.495-.46 1.878-1.183.145-.275.236-.572.272-.879a2.025 2.025 0 0 0 1.032-1.528c.055-.46.001-1.36-.988-2.226l-.075-.065c-.494-.437-1.402-1.237-3.014-1.782a16.13 16.13 0 0 0 1.845-1.911c2.319-2.835 3.33-5.979 3.818-7.49.059-.183.111-.345.157-.48.52-1.504.69-4.48.302-7.264.121.032.234.041.325.041.116 0 1.137-.035 1.293-1.303.286-1.92.35-7.011-5.067-13.282-1.795-2.08-3.815-3.801-5.927-5.097.18-.192.356-.388.524-.588l.029-.035.084-.099c.092-.111.182-.226.273-.34l.09-.117.008-.012c.418-.548.802-1.128 1.14-1.722l.043-.074c.353-.628.66-1.282.918-1.946l.005-.014c.139-.36.262-.725.372-1.093l.084.002.036-.041c.764-.002 1.537-.071 2.298-.207 8.683-1.547 9.906-9.75 10.066-11.426.08-.687-.158-1.122-.374-1.368" fill="#FEFEFE" mask="url(#29gymjnmhd)"/>
        <path d="M37.109 37.329c-1.824-1.664-2.706-3.12-3.117-3.999-1.358 2.665-3.973 4.618-7.152 4.982a9.124 9.124 0 0 1-6.684-1.886 12.898 12.898 0 0 0-.188 5.078c1.183 7.225 8.267 11.86 15.821 10.351 5.382-1.075 9.547-4.979 11.071-9.747-3.347-.324-6.623-1.925-9.751-4.78" fill="#C12518" mask="url(#29gymjnmhd)"/>
        <path d="M20.297 36.188a9.182 9.182 0 0 1-3.533-6.236c-.581-5.06 3.068-9.637 8.163-10.212a9.301 9.301 0 0 1 3.354.227 6.223 6.223 0 0 1 1.1-1.493C30 16.13 33.619.722 21.425 1.338c-12.22.615-5.962 14.01-2.882 17.742C15.979 16.495 6.687 8.09 2.126 16.998c0 0-4.027 10.066 11.34 12.323 0 0-11.19-.601-8.547 8.33 0 0 3.385 8.78 14.999 2.88l.09-.035a12.732 12.732 0 0 1 .29-4.308M52.795 28.062c-.106-1.43-.843-.134-.843-.134-1.339 2.002-4.606 5.99-10.042 7.256 1.775.607 3.822.96 5.99.699.96-.116 1.857-.35 2.694-.662 1.203-1.954 2.287-4.48 2.201-7.159" fill="#8D1B17" mask="url(#29gymjnmhd)"/>
        <path d="M36.525 32.15c1.024.895 2.98 2.281 5.46 3.16a15.04 15.04 0 0 0 4.875-2.166 12.627 12.627 0 0 0-3.057-4.434c-2.063 1.096-4.505 1.959-7.385 2.462-1.067.187.107.978.107.978" fill="#1D1D1B" mask="url(#29gymjnmhd)"/>
        <path d="M38.707 23.168c.594-.962 1.57-1.428 2.2-1.046.633.385.658 1.47.071 2.433-.591.955-1.572 1.429-2.197 1.043-.631-.379-.663-1.47-.074-2.43m20.488 6.562c-1.687.089-5.23 5.67-11.217 6.417-5.104.64-9.53-2.298-11.255-3.805 0 0-1.149-.774-.105-.957 16.554-2.89 18.351-17.928 16.646-20.058-.804-1-5.206-.947-12.874 7.538-4.888 5.41-5.75 9.135-5.74 11.115.007 1.11.367 2.214.366 2.214.004 0 .496 1.85 3.094 4.199 2.876 2.602 7.174 5.27 12.434 4.337 7.884-1.397 9.02-8.737 9.176-10.413.094-.737-.525-.587-.525-.587" fill="#F3D015" mask="url(#29gymjnmhd)"/>
        <path d="M39.012 22.924c-.561.93-.532 1.988.07 2.356.596.374 1.532-.087 2.095-1.012.56-.933.535-1.986-.067-2.358-.601-.371-1.532.08-2.098 1.014M31.049 29.45a1.655 1.655 0 0 1-1.83-1.452 1.654 1.654 0 0 1 1.455-1.829 1.656 1.656 0 0 1 1.647.872c.03-.37.026-.747-.018-1.13-.354-3.17-3.223-5.445-6.397-5.083a5.762 5.762 0 0 0-4.16 2.552 3.2 3.2 0 0 1 1.928-.937 3.226 3.226 0 1 1 .732 6.41 3.234 3.234 0 0 1-3.57-2.84c-.004-.034-.004-.068-.007-.103a5.773 5.773 0 0 0 6.392 6.392 5.772 5.772 0 0 0 4.463-3.06c-.19.109-.404.182-.635.207M31.448 18.591c1.133-.12 2.169.656 2.294 1.736.115.922-.466 1.77-1.345 2.076a8.956 8.956 0 0 1 2.17 3.007c.714-1.605 1.877-3.489 3.713-5.645-.727-1.694-2.568-2.795-4.581-2.578a4.445 4.445 0 0 0-3.009 1.632c.228-.118.483-.198.758-.228" fill="#1D1D1B" mask="url(#29gymjnmhd)"/>
        <path d="M12.523 65.902c.956.28 1.848.428 2.644.428 1.342 0 2.384-.398 3.183-1.215 2.152-2.199 2.106-3.403 2.036-5.226-.047-1.21-.105-2.714.536-4.624.061-.183.128-.36.198-.533-1.312-.252-2.4-.7-2.875-.914-.26-.114-.223.155-.223.155l.322 2.679c.035.276-.26.2-.26.2-1.442-.198-3.391-2.199-4.002-2.862-.187-.2-.304.126-.304.126-.575 1.96.11 4.421.391 5.283.118.393-.18.495-.18.495-1.558.651-4.763-2.187-5.72-3.083-.298-.31-.315.065-.315.065-.364 3.808 2.263 6.997 4.57 9.026" fill="#8D1B17" mask="url(#29gymjnmhd)"/>
        <path d="m40.482 51.454-.115.055c-.078.038-.158.074-.238.11-.14.064-.284.125-.428.186l-.06.025-.14.058a14.693 14.693 0 0 1-.736.274l-.052.017a15.881 15.881 0 0 1-1.207.361l-.05.013-.164.042a15.604 15.604 0 0 1-2.222.381c-.523.053-1.052.079-1.574.079-2.613 0-5.158-.668-7.365-1.905-1.33.81-2.892 2.192-3.66 4.453-1.48 4.37 1.233 6.066-2.85 10.197-3.536 3.571-9.945.019-11.615-.966-.437-.257-.312.245-.312.245.222 1.097.947 3.771 2.984 5.595 0 0 .326.315-.076.254-1.11-.308-3.812-1.103-4.7-2.002-.28-.281-.292.118-.292.118.005.836.214 2.671 1.787 4.112.334.335-.13.297-.13.297-1.207-.023-4.387-.43-5.128-4.045-.143-.567-.31.036-.31.036-.639 2.071-1.996 9.01 5.904 14.915 9.413 7.047 19.814 1.22 22.41 0 2.364-1.103 7.193-5.42 8.42-8.566.319-.725.335.046.335.046.046.921.02 2.322-.441 3.276 0 0-.348.655.233.235 1.665-1.113 5.757-4.596 6.924-12.458.92-6.133-.609-12.358-5.132-15.438" fill="#C12518" mask="url(#29gymjnmhd)"/>
        <path d="M43.976 48.84c-.063.057-.126.114-.191.17l-.024.022c-.08.072-.161.142-.242.21-.075.064-.151.125-.227.187l-.047.039c-.138.11-.274.216-.405.315-.097.074-.193.148-.294.22l-.254.178c-.098.068-.198.135-.3.202-.082.054-.165.109-.25.163-.121.076-.243.15-.367.224l-.062.036-.019.012a11.705 11.705 0 0 1 1.792 1.682c2.977 3.45 4.187 8.734 3.325 14.495-1.225 8.262-5.56 11.99-7.385 13.219-.233.166-.551.352-.956.352a1.24 1.24 0 0 1-1.14-.73c-2.077 2.428-4.857 4.664-6.574 5.467-.151.072-.33.16-.536.26-.225.11-.49.239-.78.378 2.272 1.023 5.228 1.705 9.003 1.459 11.5-.74 13.977-10.642 14.772-12.956.73-2.103.668-7.776-.888-10.584-.333-.668.257-.162.257-.162.722.588 1.757 1.538 2.17 2.44 0 0 .263.638.332.022.26-1.705.34-6.394-4.799-12.315-1.715-1.982-3.74-3.715-5.911-5.005" fill="#8D1B17" mask="url(#29gymjnmhd)"/>
        <path d="m47.309 90.545-.032-.032a4.003 4.003 0 0 0-.21-.194 5.238 5.238 0 0 0-.207-.174l-.023-.019c-.081-.064-.17-.13-.263-.197l-.057-.04a8.252 8.252 0 0 0-.31-.208l-.032-.021a9.477 9.477 0 0 0-.34-.203l-.05-.03c-.126-.07-.26-.141-.399-.212l-.072-.036a11.22 11.22 0 0 0-.956-.42l-.083-.031a11.92 11.92 0 0 0-.536-.188c-.027-.01-.055-.018-.082-.026a12.75 12.75 0 0 0-.576-.17l-.03-.008a13.923 13.923 0 0 0-.634-.15l-.091-.02c-1.302.38-2.689.621-4.163.716-.544.036-1.088.053-1.616.053-2.493 0-4.799-.388-6.895-1.155-.098.278-.199.48-.302.577a7.442 7.442 0 0 1-.324.285c-.032.027-.065.05-.097.076-.083.065-.165.13-.25.194-.041.03-.083.057-.125.087-.08.056-.158.112-.24.165l-.142.089a5.604 5.604 0 0 1-.39.232c-.08.045-.158.09-.24.133h-.003c-.05.028-.104.054-.156.08l-.24.12-.167.076c-.08.035-.158.071-.238.104-.057.025-.115.048-.172.072a6.45 6.45 0 0 1-.41.156l-.228.08a15.637 15.637 0 0 1-.4.124 15.484 15.484 0 0 1-.39.105l-.183.044a6.165 6.165 0 0 1-.196.041 5.545 5.545 0 0 1-.366.066 6.805 6.805 0 0 1-.347.045c-.058.005-.117.012-.174.016l-.153.007a6.07 6.07 0 0 1-.167.006h-.036c-.077 0-.152 0-.224-.005a6.786 6.786 0 0 0-.384-.01l-.04-.002-.066.001-.147.003-.126.005a9.517 9.517 0 0 0-.272.018l-.153.015c-.04.004-.078.01-.117.015l-.152.02-.115.02a4.388 4.388 0 0 0-.256.053c-.044.01-.09.02-.134.032-.04.01-.077.023-.116.033l-.129.04c-.037.012-.072.026-.109.04-.04.013-.081.029-.121.045-.035.014-.068.03-.1.045a2.487 2.487 0 0 0-.114.054c-.032.016-.062.034-.092.05a2.6 2.6 0 0 0-.186.12c-.033.023-.063.048-.093.072a1.721 1.721 0 0 0-.152.145c-.02.02-.04.041-.057.064-.025.03-.047.064-.069.098-.014.021-.03.042-.042.064-.023.039-.04.08-.056.12-.01.02-.02.039-.027.06-.021.062-.039.126-.05.194a1.442 1.442 0 0 0-.017.243c0 .023.002.044.003.065.004.057.011.11.023.161l.013.056a.812.812 0 0 0 .075.182c.004.007.01.012.013.02a.84.84 0 0 0 .105.132l.044.04a.865.865 0 0 0 .122.09l.046.029c.06.033.127.061.2.085l.048.012a1.894 1.894 0 0 0 .488.066c.018 0 .032.003.05.003h.02c.095-.002.194-.006.298-.017l.082-.011c.08-.01.163-.022.248-.037l.126-.024a9.924 9.924 0 0 0 .372-.088c.126-.035.254-.072.388-.117.209-.07.418-.142.628-.215l.616-.213.13-.044c.198-.068.398-.135.598-.2l.023-.008a21.504 21.504 0 0 1 .725-.217c.2-.056.4-.107.602-.155.04-.01.081-.018.122-.027.208-.046.416-.089.628-.124l.024-.005c.215-.034.435-.06.656-.082l.133-.012c.218-.017.439-.027.664-.029l.05-.002c.035 0 .07.004.105.004a8.723 8.723 0 0 1 .607.028c.197.016.395.037.598.068 6.052.924 9.45 3.781 11.48 6.157.039.057.087.104.14.146l.021.019c.051.038.108.07.17.096l.036.015c.061.024.127.043.196.055.013.004.027.005.04.007.073.011.147.018.226.019h.006l.026-.002a1.83 1.83 0 0 0 .238-.018c.07-.01.142-.022.215-.04l.044-.012c.064-.017.13-.036.195-.058l.043-.014c.075-.028.149-.058.222-.092l.044-.022a3.14 3.14 0 0 0 .226-.12c.072-.044.141-.092.21-.142l.039-.03a2.418 2.418 0 0 0 .554-.592l.01-.016c.042-.067.078-.138.112-.21l.02-.043c.033-.076.061-.155.084-.237l.008-.037c.019-.075.032-.152.04-.23l.005-.042a1.828 1.828 0 0 0-.051-.58l-.007-.032a2.273 2.273 0 0 0-.101-.29l-.03-.068a2.632 2.632 0 0 0-.163-.305c-.324-.526-.879-.973-2.496-2.137-1.614-1.164-3.235-1.561-4.338-1.864 0 0-.234-.193.214-.222a.692.692 0 0 1 .06-.003l.04.001h.004c.038.002.08.004.127.008h.008c.046.005.097.01.153.018l.015.002a4.8 4.8 0 0 1 .17.026l.029.005.18.034.043.01c.061.012.124.026.19.042l.06.015.192.05.077.02a6.434 6.434 0 0 1 .289.088l.197.064.108.038.198.073.123.047c.065.025.133.053.2.082a4.61 4.61 0 0 1 .337.147c.047.02.093.041.14.064.07.032.14.068.211.104l.142.071c.073.038.148.08.221.12.048.026.094.05.14.077.082.045.162.094.243.143.042.025.083.048.125.075.123.075.247.156.371.24 1.634 1.106 3.026 2.187 3.322 3.44 1.422-.467 2.088-1.33 1.38-2.807-.54-1.125-2.61-3.143-7.452-3.848a.593.593 0 0 1-.12-.016c-.011-.002-.015-.006-.024-.01-.015-.006-.032-.011-.04-.019-.005-.004-.005-.01-.007-.016-.003-.007-.008-.013-.007-.021.001-.007.007-.013.01-.02.006-.007.008-.014.015-.02a.167.167 0 0 1 .029-.022l.026-.018a.307.307 0 0 1 .044-.02c.011-.004.021-.01.033-.013.016-.006.034-.01.052-.014l.039-.009a.591.591 0 0 1 .053-.005c.01 0 .02-.003.031-.003l.03.001c5.523.344 7.905 3.245 8.141 4.578.617-.437 1.892-1.177.344-2.993a3.278 3.278 0 0 0-.134-.146M50.815 87.125l-.147-.14-.153-.141-.014-.013a6.775 6.775 0 0 0-.162-.144l-.03-.026a5.143 5.143 0 0 0-.197-.165l-.032-.025a6.106 6.106 0 0 0-.22-.168l-.015-.011a6.901 6.901 0 0 0-.258-.179l-.045-.03a7.157 7.157 0 0 0-.619-.359l-.053-.027a7.463 7.463 0 0 0-.36-.171l-.032-.013a7.846 7.846 0 0 0-.378-.152l-.05-.019a8.045 8.045 0 0 0-.434-.144l-.066-.02-.142-.038c-.39.312-.793.602-1.208.872 3.24.542 4.332 2.124 4.72 3.418.64-.356.885-1.375-.105-2.305" fill="#F3D015" mask="url(#29gymjnmhd)"/>
        <path d="M50.145 89.752a1.88 1.88 0 0 0-.049-.242c-.007-.03-.017-.057-.026-.087a1.84 1.84 0 0 0-.073-.196c-.012-.028-.023-.057-.036-.085a2.282 2.282 0 0 0-.153-.274c-.44-.672-1.186-1.792-4.4-2.408a15.26 15.26 0 0 1-1.518.753c2.156.716 3.551 1.787 4.17 2.539.475.576.772 1.124.9 1.656v.002h.006c.012 0 .023-.003.034-.003a1.166 1.166 0 0 0 .245-.04 1.1 1.1 0 0 0 .143-.051c.02-.009.038-.016.057-.026.061-.031.12-.067.175-.11l.026-.021c.045-.038.089-.08.13-.125.016-.017.031-.037.047-.055.032-.039.063-.08.09-.124.013-.021.028-.04.04-.062a1.39 1.39 0 0 0 .097-.2c.005-.011.007-.024.011-.035a1.606 1.606 0 0 0 .093-.443l.005-.082c.003-.084 0-.169-.01-.255 0-.009-.003-.017-.004-.026" fill="#F3D015" mask="url(#29gymjnmhd)"/>
    </g>
</svg>